<svg xmlns="http://www.w3.org/2000/svg" width="512" height="512" viewBox="0 0 108 108">
    <path fill="#00E5FF" d="M54,30 C42,30 32,38 30,48 L28,58 C26,66 32,74 40,74 L44,74 C48,74 50,72 52,68 L56,68 C58,72 60,74 64,74 L68,74 C76,74 82,66 80,58 L78,48 C76,38 66,30 54,30Z" />
    <path fill="#06060C" d="M43,46 A6,6 0 1,1 43,58 A6,6 0 1,1 43,46Z" />
    <path fill="#06060C" d="M65,37 A3,3 0 1,1 65,43 A3,3 0 1,1 65,37Z" />
    <path fill="#06060C" d="M56,43 A3,3 0 1,1 56,49 A3,3 0 1,1 56,43Z" />
    <path fill="#06060C" d="M68,43 A3,3 0 1,1 68,49 A3,3 0 1,1 68,43Z" />
    <path fill="#06060C" d="M65,49 A3,3 0 1,1 65,55 A3,3 0 1,1 65,49Z" />
</svg>
